# Blender 5.1.0
# www.blender.org
mtllib jet-topwing-right.mtl
o Object_2.004
v 0.175143 3.462708 0.740474
v 0.181204 3.470490 0.744087
v 0.442096 3.455582 0.741670
v 0.436214 3.463673 0.745230
v 0.439606 3.443353 0.710160
v 0.419495 -3.311051 1.572014
v 0.423918 3.367268 0.517595
v 0.377566 -3.342447 1.256220
v 0.390581 3.205584 0.108423
v 0.286700 -3.550220 0.715012
v 0.344242 3.089690 -0.194635
v 0.211384 -3.654136 0.437647
v 0.317715 3.032207 -0.346055
v 0.155673 -3.687930 0.344622
v 0.305503 3.032543 -0.346289
v 0.143462 -3.687621 0.344307
v 0.286746 3.091298 -0.195728
v 0.090403 -3.650915 0.435136
v 0.234573 3.210127 0.105071
v 0.038410 -3.543620 0.709878
v -0.017055 -3.332288 1.250298
v 0.197143 3.377530 0.513888
v -0.044007 -3.299196 1.565749
v 0.179523 3.456303 0.706242
v 0.183762 3.465346 0.729195
v 0.179523 3.456303 0.706242
v -0.044007 -3.299196 1.565749
v 0.435163 3.452775 0.733106
v 0.416850 3.456747 0.740469
v 0.399272 -3.298746 1.602009
v -0.040072 -3.290367 1.588780
v -0.021875 -3.287866 1.596683
v 0.202036 3.467503 0.737133
v 0.416981 -3.302139 1.594692
v 0.419495 -3.311051 1.572014
v 0.439606 3.443353 0.710160
v -0.057118 -3.303730 1.605033
v 0.175143 3.462708 0.740474
v 0.214277 3.420354 0.742612
v 0.401446 3.415296 0.743023
v 0.442096 3.455582 0.741670
v 0.376178 -3.277001 1.615489
v 0.429236 -3.318020 1.622588
v -0.013364 -3.268721 1.605776
v 0.401446 3.415296 0.743023
v 0.401060 3.439982 0.884865
v 0.214277 3.420354 0.742612
v 0.213841 3.445064 0.884442
vn -0.0173 0.1086 -0.9939
vn 0.0130 0.4082 -0.9128
vn 0.0371 0.1067 -0.9936
vn 0.0170 0.4094 -0.9122
vn 0.9972 -0.0135 -0.0732
vn 0.9917 -0.0218 -0.1263
vn 0.9972 -0.0135 -0.0733
vn 0.9897 -0.0260 -0.1408
vn 0.9945 -0.0190 -0.1033
vn 0.9776 -0.0366 -0.2075
vn 0.9886 -0.0285 -0.1478
vn 0.9194 -0.0606 -0.3885
vn 0.9862 -0.0327 -0.1621
vn 0.8654 -0.0729 -0.4957
vn -0.9919 0.0090 -0.1268
vn -0.8694 -0.0213 -0.4937
vn -0.9870 0.0126 -0.1601
vn -0.9286 -0.0069 -0.3710
vn -0.9910 0.0157 -0.1332
vn -0.9870 0.0127 -0.1602
vn -0.9949 0.0206 -0.0991
vn -0.9948 0.0205 -0.0993
vn -0.9959 0.0222 -0.0876
vn -0.9948 0.0210 -0.0993
vn -0.9854 0.0552 0.1613
vn 0.3920 0.1153 0.9127
vn -0.4128 0.1299 0.9015
vn 0.9946 0.0092 0.1036
vn 0.0815 -0.0835 -0.9932
vn -0.0178 0.1071 -0.9941
vn -0.0376 -0.0863 -0.9956
vn 0.0534 -0.0847 -0.9950
vn 0.0375 0.1059 -0.9937
vn 0.0268 -0.1350 -0.9905
vn 0.0288 -0.1303 -0.9911
vn 0.0747 -0.0757 -0.9943
vn -0.0275 -0.9845 0.1735
vn -0.0275 -0.9844 0.1735
vn -0.0275 -0.9844 0.1736
vn -0.0276 -0.9844 0.1735
vt 0.797334 0.165891
vt 0.797456 0.165769
vt 0.797334 0.161156
vt 0.797456 0.161277
vt 0.460894 0.411131
vt 0.463815 0.291546
vt 0.457122 0.409795
vt 0.457731 0.290939
vt 0.448970 0.407003
vt 0.447145 0.286933
vt 0.443008 0.404818
vt 0.441669 0.284626
vt 0.439966 0.403604
vt 0.439966 0.283655
vt 0.714471 0.650058
vt 0.714471 0.769036
vt 0.717513 0.649208
vt 0.716418 0.768914
vt 0.723719 0.647873
vt 0.722015 0.767579
vt 0.732966 0.764787
vt 0.731871 0.645566
vt 0.739050 0.764787
vt 0.735765 0.644473
vt 0.736252 0.644352
vt 0.391051 0.136268
vt 0.390808 0.136268
vt 0.390808 0.256824
vt 0.382777 0.256581
vt 0.383142 0.256581
vt 0.386792 0.136025
vt 0.464301 0.291667
vt 0.376815 0.251482
vt 0.372799 0.130683
vt 0.372069 0.131411
vt 0.368662 0.131533
vt 0.367932 0.130804
vt 0.368906 0.251118
vt 0.367932 0.251846
vt 0.375963 0.250875
vt 0.785166 0.137967
vt 0.782489 0.137846
vt 0.785166 0.141245
vt 0.782489 0.141002
s 1
usemtl object_0
f 1/1/1 2/2/2 3/3/3
f 2/2/2 4/4/4 3/3/3
f 5/5/5 6/6/6 7/7/7
f 6/6/6 8/8/8 7/7/7
f 7/7/7 8/8/8 9/9/9
f 8/8/8 10/10/10 9/9/9
f 9/9/9 10/10/10 11/11/11
f 10/10/10 12/12/12 11/11/11
f 11/11/11 12/12/12 13/13/13
f 12/12/12 14/14/14 13/13/13
f 15/15/15 16/16/16 17/17/17
f 16/16/16 18/18/18 17/17/17
f 17/17/17 18/18/18 19/19/19
f 18/18/18 20/20/20 19/19/19
f 20/20/20 21/21/21 19/19/19
f 19/19/19 21/21/21 22/22/22
f 21/21/21 23/23/23 22/22/22
f 22/22/22 23/23/23 24/24/24
f 25/25/25 26/24/25 27/23/25
s 0
f 28/26/26 29/27/26 30/28/26
s 1
f 31/29/27 32/30/27 33/31/27
f 34/32/28 35/6/28 36/5/28
f 37/33/29 38/34/30 39/35/31
f 39/35/31 38/34/30 40/36/32
f 38/34/30 41/37/33 40/36/32
f 40/36/32 41/37/33 42/38/34
f 41/37/33 43/39/35 42/38/34
f 42/38/34 43/39/35 44/40/36
f 43/39/35 37/33/29 44/40/36
f 44/40/36 37/33/29 39/35/31
f 45/41/37 46/42/38 47/43/39
f 47/43/39 46/42/38 48/44/40
