# Blender 5.1.0
# www.blender.org
mtllib torpedo-headlight.mtl
o defaultMaterial.002
v 4.364913 0.591804 -0.926508
v 4.788105 0.473110 -0.659468
v 4.552427 -0.271072 0.518611
v 4.314952 -0.193408 0.330893
v 5.095406 0.308916 -0.333082
v 5.028872 -0.367962 0.805918
v 5.269031 0.159990 -0.043535
v 5.298291 -0.401946 0.964201
v 5.468899 -0.095932 0.488461
v 5.523765 -0.405019 1.098700
v 4.364913 0.591804 -0.926508
v 4.314952 -0.193408 0.330893
v 4.079887 -0.065441 0.049314
v 3.847477 0.673617 -1.146633
v 3.847477 0.673617 -1.146633
v 4.079887 -0.065441 0.049314
v 3.812151 0.165585 -0.401622
v 3.330041 0.729074 -1.301250
v -4.364913 0.591804 -0.926508
v -4.314952 -0.193408 0.330893
v -4.552427 -0.271072 0.518611
v -4.788105 0.473110 -0.659468
v -5.028872 -0.367962 0.805918
v -5.095406 0.308916 -0.333082
v -5.298291 -0.401946 0.964201
v -5.269031 0.159990 -0.043535
v -5.523765 -0.405019 1.098700
v -5.468899 -0.095932 0.488461
v -4.364913 0.591804 -0.926508
v -3.847477 0.673617 -1.146633
v -4.079887 -0.065441 0.049314
v -4.314952 -0.193408 0.330893
v -3.847477 0.673617 -1.146633
v -3.330041 0.729074 -1.301250
v -3.812151 0.165585 -0.401622
v -4.079887 -0.065441 0.049314
vn 0.1059 -0.8477 -0.5199
vn 0.1059 -0.8476 -0.5199
vn 0.1086 -0.8496 -0.5161
vn 0.1114 -0.8516 -0.5122
vn 0.1169 -0.8540 -0.5070
vn 0.1282 -0.8559 -0.5011
vn 0.1490 -0.8581 -0.4914
vn 0.1862 -0.8567 -0.4810
vn 0.2183 -0.8545 -0.4714
vn 0.1196 -0.8393 -0.5304
vn 0.1277 -0.8222 -0.5546
vn 0.1278 -0.8222 -0.5546
vn -0.1086 -0.8496 -0.5161
vn -0.1059 -0.8476 -0.5199
vn -0.1059 -0.8477 -0.5199
vn -0.1114 -0.8516 -0.5122
vn -0.1168 -0.8540 -0.5070
vn -0.1282 -0.8559 -0.5011
vn -0.1490 -0.8581 -0.4914
vn -0.1862 -0.8567 -0.4810
vn -0.2183 -0.8545 -0.4714
vn -0.1196 -0.8393 -0.5303
vn -0.1196 -0.8393 -0.5304
vn -0.1278 -0.8222 -0.5546
vn -0.1277 -0.8222 -0.5546
vn -0.1277 -0.8223 -0.5546
vt 0.410574 0.320644
vt 0.431309 0.842484
vt 0.606940 0.731659
vt 0.509130 0.242738
vt 0.734474 0.596204
vt 0.706862 0.123501
vt 0.806532 0.476037
vt 0.818675 0.057810
vt 0.889480 0.255250
vt 0.912250 0.001992
vt 0.216565 0.933840
vt 0.313019 0.437503
vt 0.001821 0.998008
vt 0.201904 0.624649
s 1
usemtl Mat_HeadlightCover.002
f 4/1/1 1/2/2 2/3/3
f 2/3/3 3/4/4 4/1/1
f 3/4/4 2/3/3 5/5/5
f 5/5/5 6/6/6 3/4/4
f 6/6/6 5/5/5 7/7/7
f 7/7/7 8/8/8 6/6/6
f 8/8/8 7/7/7 9/9/9
f 9/9/9 10/10/9 8/8/8
f 14/11/10 11/2/10 12/1/10
f 12/1/10 13/12/10 14/11/10
f 18/13/11 15/11/12 16/12/12
f 16/12/12 17/14/11 18/13/11
f 22/3/13 19/2/14 20/1/15
f 20/1/15 21/4/16 22/3/13
f 24/5/17 22/3/13 21/4/16
f 21/4/16 23/6/18 24/5/17
f 26/7/19 24/5/17 23/6/18
f 23/6/18 25/8/20 26/7/19
f 28/9/21 26/7/19 25/8/20
f 25/8/20 27/10/21 28/9/21
f 32/1/22 29/2/23 30/11/23
f 30/11/23 31/12/23 32/1/22
f 36/12/24 33/11/24 34/13/25
f 34/13/25 35/14/26 36/12/24
